<?xml version="1.0" encoding="UTF-8" standalone="no"?>
<svg width="16px" height="18px" viewBox="0 0 16 18" version="1.1" xmlns="http://www.w3.org/2000/svg" xmlns:xlink="http://www.w3.org/1999/xlink" xmlns:sketch="http://www.bohemiancoding.com/sketch/ns">
    <!-- Generator: Sketch 3.2 (9961) - http://www.bohemiancoding.com/sketch -->
    <title>Slice 1</title>
    <desc>Created with Sketch.</desc>
    <defs></defs>
    <g id="Page-1" stroke="none" stroke-width="1" fill="none" fill-rule="evenodd" sketch:type="MSPage">
        <path d="M14.8605388,4.58868594 C14.6610907,4.4889619 14.4616426,4.38923785 14.1624704,4.38923785 C13.7635743,4.38923785 13.3646781,4.58868594 13.16523,4.98758213 L13.16523,4.98758213 L11.8688174,7.77985546 L11.8688174,7.77985546 L12.6666097,3.19254928 C12.7663338,2.49448095 12.3674376,1.89613666 11.6693693,1.79641262 L11.4699212,1.79641262 C10.8715769,1.79641262 10.3729566,2.19530881 10.2732326,2.79365309 L9.47544022,7.18151118 L8.97681998,1.59696452 C8.97681998,0.998620237 8.3784757,0.5 7.78013141,0.5 L7.68040737,0.5 C6.98233903,0.599724047 6.4837188,1.19806833 6.58344284,1.79641262 L6.98233903,7.48068332 L6.98233903,7.87957951 C6.98233903,7.77985546 6.88261499,7.68013141 6.88261499,7.58040737 C6.88261499,7.48068332 6.88261499,7.48068332 6.78289094,7.48068332 L5.38675428,2.89337714 C5.28703023,2.3947569 4.78840999,2.09558476 4.28978975,2.09558476 C4.19006571,2.09558476 4.09034166,2.09558476 3.89089356,2.19530881 C3.59172142,2.19530881 3.29254928,2.3947569 3.19282523,2.69392904 C2.99337714,2.99310119 2.99337714,3.29227333 3.09310119,3.69116952 L4.48923785,8.2784757 C5.08758213,10.0735086 4.78840999,10.5721288 4.78840999,10.7715769 L4.68868594,10.8713009 C4.5889619,10.8713009 4.3895138,10.7715769 4.28978975,10.6718528 L2.59448095,9.37544022 C2.29530881,9.07626808 2.09586071,8.97654403 1.79668857,8.97654403 C1.39779238,8.97654403 1.09862024,9.17599213 0.899172142,9.37544022 C0.699724047,9.67461236 0.6,9.9737845 0.6,10.2729566 C0.6,10.5721288 0.799448095,10.8713009 0.99889619,11.070749 L3.89089356,13.4641262 C4.5889619,14.6608147 5.28703023,15.259159 5.68592642,15.5583312 L5.68592642,17.0541919 L5.68592642,17.353364 L11.4699212,17.353364 L11.4699212,17.0541919 L11.4699212,15.5583312 C12.7663338,13.9627464 12.7663338,11.8685414 12.7663338,11.3699212 L15.259435,6.1842707 C15.5586071,5.68565047 15.359159,4.88785809 14.8605388,4.58868594 L14.8605388,4.58868594 Z" id="hand" fill="#A9BCC4" sketch:type="MSShapeGroup"></path>
    </g>
</svg>