<?xml version="1.0" encoding="UTF-8" standalone="no"?>
<svg width="21px" height="16px" viewBox="0 0 21 16" version="1.1" xmlns="http://www.w3.org/2000/svg" xmlns:xlink="http://www.w3.org/1999/xlink" xmlns:sketch="http://www.bohemiancoding.com/sketch/ns">
    <!-- Generator: Sketch 3.2 (9961) - http://www.bohemiancoding.com/sketch -->
    <title>Slice 1</title>
    <desc>Created with Sketch.</desc>
    <defs></defs>
    <g id="Page-1" stroke="none" stroke-width="1" fill="none" fill-rule="evenodd" sketch:type="MSPage">
        <path d="M17.4,4 C17.4,4 16.4,3.9 15.6,3.1 C14.9,2.4 14.5,2.3 14.5,2.3 L9.6,2.3 L6.7,4.8 C6.9,4.9 7.3,5.1 7.7,5.1 C8.1,5.1 8.4,5 8.8,4.7 C9.7,4.1 10.3,3.8 11.1,3.8 C11.9,3.8 12.6,4.2 13.6,5.1 C15.4,6.7 17.3,8.6 17.4,8.7 L17.5,8.8 L17.5,11 L20.2,11 L20.2,4 L17.4,4 L17.4,4 Z" id="Shape" fill="#A9BCC4" sketch:type="MSShapeGroup"></path>
        <path d="M7,11.4 C6.8,11.2 6.6,11.2 6.4,11.2 C6.2,11.2 6,11.3 5.8,11.4 L5.6,11.6 L6.8,12.8 L7,12.5 C7.3,12.2 7.3,11.7 7,11.4 L7,11.4 Z" id="Shape" fill="#A9BCC4" sketch:type="MSShapeGroup"></path>
        <path d="M8.5,12.9 C8.3,12.7 8.1,12.7 7.9,12.7 C7.7,12.7 7.5,12.8 7.3,12.9 L7.3,12.9 L7.1,13.1 L8.3,14.3 L8.5,14.1 C8.8,13.8 8.8,13.2 8.5,12.9 L8.5,12.9 Z" id="Shape" fill="#A9BCC4" sketch:type="MSShapeGroup"></path>
        <path d="M9.5,14.2 C9.3,14.2 9.1,14.3 8.9,14.4 L8.7,14.6 L9.9,15.8 L10.1,15.6 C10.4,15.3 10.4,14.8 10.1,14.4 C9.9,14.3 9.7,14.2 9.5,14.2 L9.5,14.2 Z" id="Shape" fill="#A9BCC4" sketch:type="MSShapeGroup"></path>
        <path d="M5.4,9.8 C5.2,9.6 5,9.6 4.8,9.6 C4.6,9.6 4.4,9.7 4.2,9.8 L4,10 L5.2,11.2 L5.4,11 C5.7,10.7 5.7,10.1 5.4,9.8 L5.4,9.8 Z" id="Shape" fill="#A9BCC4" sketch:type="MSShapeGroup"></path>
        <path d="M13.1,5.7 L13.1,5.7 C12.3,5 11.7,4.6 11.1,4.6 C10.6,4.6 10,4.9 9.3,5.4 C8.8,5.7 8.3,5.9 7.8,5.9 C6.7,5.9 5.9,5.2 5.9,5.1 L5.5,4.8 L9.2,1.5 L13.7,1.5 C14.3,1 14.2,0.1 14.2,0.1 L9.7,0.1 C7.5,0.1 7.4,0.5 5.8,2 C4.6,3.5 3.2,3.5 3.2,3.5 L0.7,3.5 L0.7,10.1 L3.1,10.1 L3.8,9.4 C4.1,9.1 4.4,9 4.8,9 C5.2,9 5.5,9.1 5.8,9.4 C6.1,9.7 6.2,10.2 6.2,10.6 L6.4,10.6 C6.8,10.6 7.1,10.7 7.4,11 C7.7,11.3 7.8,11.8 7.8,12.2 L8,12.2 C8.4,12.2 8.7,12.3 9,12.6 C9.3,12.9 9.4,13.4 9.4,13.8 L9.6,13.8 C10,13.8 10.3,13.9 10.6,14.2 C10.8,14.4 10.9,14.6 11,14.8 C11.3,15 11.7,15 11.9,14.7 C12.2,14.4 12.2,14 11.9,13.7 L8.6,10.4 L9.2,9.8 L12.5,13.1 C12.8,13.4 13.2,13.4 13.5,13.1 C13.6,13 13.7,12.8 13.7,12.6 C13.7,12.4 13.6,12.2 13.5,12.1 L10,8.8 L10.6,8.2 L13.9,11.5 C14.2,11.8 14.6,11.8 14.9,11.5 C15.2,11.2 15.2,10.8 14.9,10.5 L11.6,7.2 L12.2,6.6 L15.5,9.9 C15.8,10.2 16.2,10.2 16.5,9.9 C16.8,9.6 16.8,9.2 16.5,8.9 L13.1,5.7 L13.1,5.7 Z" id="Shape" fill="#A9BCC4" sketch:type="MSShapeGroup"></path>
    </g>
</svg>