<?xml version="1.0" encoding="UTF-8" standalone="no"?>
<svg width="27px" height="45px" viewBox="0 0 27 45" version="1.1" xmlns="http://www.w3.org/2000/svg" xmlns:xlink="http://www.w3.org/1999/xlink" xmlns:sketch="http://www.bohemiancoding.com/sketch/ns">
    <!-- Generator: Sketch 3.2 (9961) - http://www.bohemiancoding.com/sketch -->
    <title>Slice 1</title>
    <desc>Created with Sketch.</desc>
    <defs></defs>
    <g id="Page-1" stroke="none" stroke-width="1" fill="none" fill-rule="evenodd" sketch:type="MSPage">
        <path d="M26.4,21.3 C26.4,21 26.4,20.6 26.3,20.3 C26.2,19.6 25.8,19.3 25.1,19.2 L24.3,19.2 L2.1,19.2 C1.8,19.2 1.4,19.2 1.1,19.3 C0.6,19.4 0.3,19.7 0.2,20.2 C0.1,20.5 0.1,20.8 0.1,21.2 L0.1,35.9 L0.1,36.3 C0.2,37.4 0.6,37.8 1.7,37.8 L6.4,37.8 L7.5,37.8 L7.5,38.3 C7.5,40.1 7.2,41.9 7.2,43.7 C7.2,44 7.1,44.5 7.5,44.6 C7.9,44.8 8.1,44.4 8.3,44.2 C10.6,42.1 12.8,40.1 15,38 C15.2,37.8 15.4,37.7 15.7,37.7 L24,37.7 L25,37.7 C25.8,37.6 26.2,37.3 26.3,36.5 C26.3,36.2 26.4,36 26.4,35.7 C26.5,30.9 26.5,26.1 26.4,21.3 L26.4,21.3 Z M10.1,27.1 C10.1,28.2 9.2,29 8.2,29 C7.1,29 6.3,28.1 6.3,27.1 C6.3,26 7.2,25.2 8.2,25.2 C9.3,25.1 10.1,26 10.1,27.1 L10.1,27.1 Z M20.2,27.1 C20.2,28.2 19.3,29 18.3,29 C17.2,29 16.4,28.1 16.4,27.1 C16.4,26 17.3,25.2 18.3,25.2 C19.3,25.1 20.2,26 20.2,27.1 L20.2,27.1 Z M16.8,31.9 C16.8,32.2 16.6,32.4 16.3,32.4 L10.3,32.4 C10,32.4 9.8,32.2 9.8,31.9 C9.8,31.6 10,31.4 10.3,31.4 L16.3,31.4 C16.6,31.4 16.8,31.6 16.8,31.9 L16.8,31.9 Z" id="Shape" fill="#FAAB00" sketch:type="MSShapeGroup"></path>
        <g id="Group" sketch:type="MSLayerGroup" transform="translate(3.000000, 0.000000)">
            <circle id="Oval" fill="#FFFFFF" sketch:type="MSShapeGroup" cx="10.7" cy="10.6" r="9.8"></circle>
            <path d="M10.8,12.4 L9.3,12.4 L9.3,11.8 C9.3,9.2 12.1,9.2 12.1,7.5 C12.1,6.6 11.5,6.1 10.4,6.1 C9.6,6.1 8.9,6.5 8.2,7.3 L7.2,6.5 C8.1,5.4 9.2,4.9 10.5,4.9 C12.5,4.9 13.6,6.1 13.6,7.4 C13.6,10 10.7,9.6 10.7,11.9 L10.7,12.4 L10.8,12.4 Z M10.2,14.1 C10.8,14.1 11.3,14.6 11.3,15.2 C11.3,15.8 10.8,16.3 10.2,16.3 C9.6,16.3 9.1,15.8 9.1,15.2 C9.1,14.6 9.5,14.1 10.2,14.1 L10.2,14.1 Z" id="Shape" fill="#020203" sketch:type="MSShapeGroup"></path>
        </g>
    </g>
</svg>